<svg xmlns="http://www.w3.org/2000/svg" width="125.309" height="85.712" viewBox="0 0 125.309 85.712"><path d="M92.634 6.406a40.119 40.119 0 0 1 26.477 19.766l-.208.08-.625-.112-.192.3c-.16-.016-.336-.048-.5-.064l-.48.5-.064.753.112.385-.641-.032-.561.224a13.091 13.091 0 0 1-.833-.112l-.417.865-.32.24-.32.4-.3.449-.3-.545-.464.16.192.368-.192.353.24.352.272.737-.5.193-.16.4-.609.128-.673.32-.737.449-.593.144-.48.641c-.08.144-.192.336-.272.48-.112.48-.176.8-.224 1.137l.288.8.064.881.1.593-.224.432-.257.272-.3-.16.032-.433-.337-.24-.1-.416-.24-.32-.048-.368-.16-.368c.032-.176.064-.368.1-.545l-.3-.544-.353-.449-.256.016-.24.224a1.735 1.735 0 0 1-.289-.032l-.272-.513-.865-.224-.481-.016-.7-.08-.256.481.032.336-.448-.032c-.176-.032-.368-.064-.561-.1l-.224-.465-.4.1-.432-.24-.625-.192-.561.368-.528.3-.464-.048-.705.657.144.833-.3.737-.433.609-.064.864.032 1.249.32.769.128.593.561.432.272.529.769.032.753-.08.529.016.384-.609.353-.657.336-.433h.625l.977.08.256.257-.144.5-.416.192c-.048.241-.08.465-.112.689l-.32.577-.208.336-.048.336-.048.289-.464.272.416.368.721-.16.593.224.9.08.545.384.24.5c-.032.192-.048.384-.08.576l-.3.8c-.032.224-.064.449-.1.657l-.08.5.513.721.384.353.913.208.624.128.961.144.288.432-.224.4-.3-.016-.064-.337-.913-.192-.3.288-.016.513-.513-.3-.913-.641c-.384-.016-.384-.016-1.073-.865l-.368-.256-.3.1-.192-.3c.144-.3.144-.3-.8-2.082l-.368-.272-.08.337-.672-.353-.289-.545-.3-.192-.224-.032c-.192-.032-.384-.064-.56-.1l-.32-.544-.625-.689-.576-.433-.561-.032-.192.24-.5-.048-.737-.368-.881-.673-.785-.544-.641-.609-.641-.352-.465-.609-.576-.737.16-.385.353-.176-.257-.353-.112-.689-.464-.833-.16-.577-.272-.561-.416-.416.032-.544-.224-.513-.352-.544-.337-.737-.256-.881.144-.609-.144-.433-.384-.3-.3-.032-.16.7.241.609.016.673.3.24-.032.529.256.448.032.561.032.577.32.432-.032.449.3.256.064.529-.144.416-.24.1.048-.4-.208-.384-.288-.465-.368-.272-.032-.32.128-.353-.192-.48-.416-.5-.288-.416-.113-.4.385-.224-.016-.353-.272-.513-.192-.449.032-.929v-.56l.08-.545-.208-.513-.368-.368-.192-.4-.432-.1-.1-.545.1-.433-.16-.4.128-.833-.176-.465-.032-.513.289-.56v-.4l.144-.449.352-.513.064-.624c.1-.176.192-.353.272-.529l.3-.144c.144-.272.289-.528.433-.8l.448-.689.32-.5.192-.689.145-.528-.209-.577-.048-.32-.1-.256.064-.368h.241l.128.112.112.144.064.241c.08.016.16.048.24.064l-.24.4.144.16.144.32-.112.272v.464l.032.368c.1-.16.208-.336.3-.5l.24-.657-.112-.353-.176-.4.128-.272-.208-.192-.224-.257-.16-.32.144-.336.016-.512.272-.464-.256-.128.208-.4.3-.4.128-.385.272-.32-.176-.1-.112-.16.3-.257-.128-.272.336-.272-.192-.209.16-.32.016-.24a1.362 1.362 0 0 0-.256.032c.016-.145.032-.353.048-.5l-.032-.32.128-.32-.192-.048-.016-.192-.336.032-.112-.193.064-.288a2.147 2.147 0 0 0 .208-.5c.016-.1.209-.112.193-.208-.032-.161-.128-.3-.1-.417.064-.16.193-.272.193-.449a2.89 2.89 0 0 0 0-.641c-.128-.416-.337-.816-.224-1.137a1.551 1.551 0 0 1 .08-.257Zm30.741 46.675a39.952 39.952 0 0 1-15.056 24.283l-.032-.016c.016-.048.048-.112.064-.161a.729.729 0 0 0-.32-.144c.016-.048.016-.112.032-.16.144-.1.16-.145.16-.208a3.963 3.963 0 0 0 .32.24.928.928 0 0 0-.064-.3c-.112-.176-.112-.224-.112-.289.112 0 .112 0 .112-.016v.171a1.121 1.121 0 0 0 .176.208c.176-.576.176-.576.208-.609a3.019 3.019 0 0 0 .064-.336.761.761 0 0 1 .16-.08.676.676 0 0 0 .08-.24l-.288-.048-.128.561c-.08-.016-.144-.016-.224-.032l-.144-.1c-.016-.128-.016-.128.144-.448.048 0 .128-.016.176-.016a.408.408 0 0 0-.032-.272.573.573 0 0 0-.032-.16c.288-.416.384-.56.176-1.089.16-.224.433-.352.577-.592l-.016-.048a.573.573 0 0 1 .032-.16c0-.112.016-.16.016-.208.657-.4.64-.673.592-1.955a.312.312 0 0 1 .016-.08 12.824 12.824 0 0 0 .624-1.234c.048-.352.368-.56.481-.881.048-.08.064-.112.064-.144l.016-.1a.731.731 0 0 1-.032-.32.71.71 0 0 0 .128-.208v-.048c0-.048.016-.112.016-.16a1.377 1.377 0 0 1-.016-.209l.032-.016a.789.789 0 0 1 .08-.32c.08-.128.1-.16.1-.176 0-.048-.016-.128-.016-.176a.362.362 0 0 1 .016-.16l.032-.048a.862.862 0 0 1 .08-.336c.048-.353.113-.705.176-1.057a2.358 2.358 0 0 1-.352-.048 3.845 3.845 0 0 0-1.778-1.634c-.24-.064-.24-.064-1.842-3.251a1.526 1.526 0 0 1 .016-.272c.032-1.121-1.57-1.409-1.458-2.579a.275.275 0 0 1 .016-.112c-.224-.368-.224-.368-.128-.641.416-.192.416-.192.448-.464.176-.064.368-.048.545-.1a.873.873 0 0 0 .1-.353.769.769 0 0 0-.528-.032 1.139 1.139 0 0 0-.144-.1c-.064-.352.112-.688.1-1.025a1.042 1.042 0 0 1 .545-.032c.064-.609.272-.625.657-.641.016-.08.048-.176.064-.257a3 3 0 0 1 .4-.144 3.985 3.985 0 0 0-.016-.449c.112 0 .272.016.385.016.176-.144.176-.144.384-.913.7-.3.176-1.041.272-1.57a.777.777 0 0 1-.288-.176c.032-.128.192-.4.753-.672a1.408 1.408 0 0 1 .336-.577.555.555 0 0 0 .529-.1 3.321 3.321 0 0 0 .176-.8 1.839 1.839 0 0 0 1.394-.272 5.886 5.886 0 0 1 .9.1c.032-.464.112-.48.529-.513l.3.048.048.144c-.016 0-.609.336-.7.577.24.5-.432 1.1.176 1.553.208-.352-.064-.785.16-1.153a.791.791 0 0 1 .641-.16c.208-.176.224-.208.257-.433.48-.112.7.368 1.105.449a.5.5 0 0 1 .08.416c.1.032.224.08.337.112a4.448 4.448 0 0 0 .817.176c.368.112.512.449.785.657.208 0 .208 0 .577-.545a.654.654 0 0 1 .528.144.134.134 0 0 0 .1.032l.336-.193c.449.145.464.176.577.369a.817.817 0 0 1-.336.1 3.219 3.219 0 0 0-.016.5c.144.048.144.048.705-.048a1.016 1.016 0 0 1 .288.016c-.064.257-.128.529.336.657a.223.223 0 0 1 0 .144c.625.449.625.449.721.465.144.768.192 1.041 1.393 1.426a1.689 1.689 0 0 0 .24.032c.048 0 .08.016.112.016Zm-15.38 24.524-.016.016Zm10.492-33.253.048-.016c-.08-.08-.224-.048-.257-.16-.048-.144.048-.256.048-.4a2.963 2.963 0 0 1-.833.016c-.1-.016-.192-.016-.272-.032-.144-.048-.256-.16-.4-.192-.032 0-.08-.016-.128-.016-.128.016-.192.144-.32.16 0 0-.432-.048-.464-.064-.192-.032-.24-.241-.416-.289-.208-.08-.3-.3-.528-.352l-.978-.176a3.577 3.577 0 0 0-.528-.016c-.032.272-.08.544-.112.817a2.32 2.32 0 0 0 .48.561 2.294 2.294 0 0 1 .288.032c.353.065.593-.272.929-.224.16.032.288.128.449.144s.3-.032.464 0a4.1 4.1 0 0 0 1.057.032.275.275 0 0 1 .272.032 3.541 3.541 0 0 0 .672.192c.1.016.192.032.272.048a.707.707 0 0 0 .257-.1Zm-7.32-.721.048-.032c-.032-.08.048-.193-.032-.272-.064-.064-.16-.048-.224-.1a1.966 1.966 0 0 1-.224-.161l-.08-.032c-.256-.032-.528-.08-.785-.112.048.08.064.176.112.272l.064.08c.048.048.064.048.208.048.128-.016.352.192.352.192.048.032.032.08.016.176a.274.274 0 0 0 .016.112c.1 0 .176.064.272.032.048-.016.048-.016.256-.208Zm-.592-1.682c.688.112 1.377.208 2.066.3a2.264 2.264 0 0 0-.945-.993c-.1-.016-.192-.032-.3-.048a2.374 2.374 0 0 1-.881-.144c-.176-.1-.224-.3-.368-.449a7.645 7.645 0 0 0-.737-.512c-.288-.208-.288-.208-.32-.32a.238.238 0 0 0-.224-.208c-.208-.016-.432-.048-.64-.064-.032-.016-.032-.016-.289.08-.128.048-.208-.08-.32-.1l-.592-.1c-.5-.1-.5-.1-.577-.064-.641.368.16 1.282.9 1.041.176-.064.3-.209.5-.24a3.573 3.573 0 0 1 .5.1s.528.256.56.545c0 .112.016.128.1.176a3.2 3.2 0 0 0 .641.272c.176 0 .224.064.288.209a1.05 1.05 0 0 0 .657.513Z" fill="#d1ab66"/><path d="M86.211 84.893c-7.465-1.2-15.6-7.48-10.476-14.785 3.343-4.765 7.608-3.249 12.13-1.734 3.885 1.3 7.96 2.6 11.8-.076 9.1-6.359-3.525-3.411-8.2-13.743a22.711 22.711 0 0 1-7.016-3.364l1.49-2.243c6.279 3.973 6.086 1.186 8.281 5.35 3.3 6.279 19 7.833 7 16.194-4.781 3.326-9.617 1.957-13.755.587-4.431-1.466-8.063-2.932-9.967 1.367-3.523 7.944 9.868 10.844 16.4 9.61 20.298-3.843 32.709-27.693 26.639-47.747C112.63 8.173 85.13.773 65.362 10.691c-.972 6.309.42 11.973 5.471 17.867a26.846 26.846 0 0 1 .769-6.2c1.041-4.935 6.294-7.575 6.936-4.735 1.97 8.73-4.79 7.849 1.634 15.056 7.112 8.762 3.3 6.488 4.885 14.641l-2.354.576c-1.362-7.032 1.618-7.24-4.261-13.519-3.524-3.764-4.549-5.7-2.578-10.363a11.778 11.778 0 0 0 .432-4.857c-5.494 2.867-.449 19.653-7.656 9.691-4.38-6.065-5.212-11.876-4.036-17.765a38.013 38.013 0 0 0-19.319 25.613c-1.233 5.286-.912 6.663-.912 12.109-.161-7.272-.32-10.8 2.338-17.86A38.86 38.86 0 0 1 64.916 9.699 47.373 47.373 0 0 1 68.608.223a47.713 47.713 0 0 0-3 9.121c22.838-11.512 55.468.981 59 32.333 2.28 20.212-14.724 43.536-34.425 43.535a24.9 24.9 0 0 1-3.972-.319Zm-11.2-26.077c-3.011-4.5-5.189-5.782-6.406-11.148-1.843-8.041 1.473-4.037 4.949-2.932l2.819.561a1.681 1.681 0 1 1-1.277 3.108 38.341 38.341 0 0 0-5.974-4.805 6.387 6.387 0 0 0-.512 4.068c.88 3.876 4.773 7.192 8.344 8.392a1.684 1.684 0 0 1-1.938 2.755Z" fill="#003874"/><path d="M90.185 85.712v-1c8.2 0 16.371-4.094 23.012-11.527 7.92-8.862 12.099-20.916 10.911-31.452-2.8-24.806-22.918-36.1-40.43-36.1a39.818 39.818 0 0 0-17.85 4.161l-.481.242-.2.1q-1.477.783-2.866 1.688 1.02-.623 2.086-1.188l.929-.488v.018a40.99 40.99 0 0 1 29.885-2.465 38.329 38.329 0 0 1 10.845 5.249 37.471 37.471 0 0 1 8.934 8.811 41.768 41.768 0 0 1 6.056 12.4 36.767 36.767 0 0 1 1.48 8.229 39.489 39.489 0 0 1-.338 8.287 41.63 41.63 0 0 1-5.536 15.426 37.2 37.2 0 0 1-9.557 10.637 31.562 31.562 0 0 1-13.069 5.808 18.164 18.164 0 0 1-3.341.282 24.838 24.838 0 0 1-7.646-1.2 10.667 10.667 0 0 1-5.728-3.819 5.558 5.558 0 0 1-.239-5.569 4.607 4.607 0 0 1 4.45-3.143 18.856 18.856 0 0 1 5.49 1.29l.641.213a22.664 22.664 0 0 0 7.039 1.453 10.65 10.65 0 0 0 6.273-1.977c2.888-2.013 4.274-3.7 4.235-5.142-.05-1.852-2.5-3.372-5.1-4.983-2.509-1.555-5.1-3.163-6.292-5.426-1.137-2.157-1.5-2.266-2.716-2.624a18.464 18.464 0 0 1-4.974-2.278l-.939 1.413a21.2 21.2 0 0 0 6.462 3.034l.217.066.093.207c2.075 4.596 5.72 6.443 8.375 7.791 1.739.882 3 1.519 3.076 2.65.073 1.035-.919 2.171-3.425 3.922a9 9 0 0 1-5.311 1.655 22.332 22.332 0 0 1-6.93-1.515l-.193-.065a20.108 20.108 0 0 0-6.047-1.4 6.173 6.173 0 0 0-5.322 3.01 6.7 6.7 0 0 0-1.005 6.755c1.455 3.445 6.041 6.426 11.152 7.249a24.5 24.5 0 0 0 3.893.313v1a25.5 25.5 0 0 1-4.053-.325 19.586 19.586 0 0 1-7.135-2.671 11.806 11.806 0 0 1-4.777-5.175 7.731 7.731 0 0 1 1.107-7.716 7.184 7.184 0 0 1 6.14-3.435 20.782 20.782 0 0 1 6.365 1.45l.192.064a21.58 21.58 0 0 0 6.613 1.461 8.026 8.026 0 0 0 4.743-1.475c2.032-1.42 3.041-2.441 3-3.032-.04-.566-1.194-1.151-2.531-1.829-2.6-1.316-6.5-3.3-8.744-8.059a23.114 23.114 0 0 1-6.924-3.355l-.43-.274 2.046-3.074.413.261a18.2 18.2 0 0 0 5.138 2.423c1.474.435 2.049.708 3.318 3.117 1.059 2.022 3.531 3.557 5.931 5.041 2.833 1.756 5.509 3.415 5.573 5.806.049 1.835-1.433 3.738-4.663 5.99a11.619 11.619 0 0 1-6.845 2.156 23.506 23.506 0 0 1-7.353-1.5l-.644-.214a18.268 18.268 0 0 0-5.174-1.239c-1.665 0-2.755.786-3.536 2.548a4.616 4.616 0 0 0 .163 4.618 9.719 9.719 0 0 0 5.206 3.415 24.158 24.158 0 0 0 7.329 1.147 17.169 17.169 0 0 0 3.155-.265c8.943-1.694 16.742-7.37 21.961-15.982a39.189 39.189 0 0 0 4.291-31.13C113.926 14.185 97.096 6.964 83.388 6.964a39.9 39.9 0 0 0-17.57 4.059c-.873 6.055.54 11.109 4.558 16.194a28.979 28.979 0 0 1 .738-4.964 9.037 9.037 0 0 1 2.482-4.53 5.459 5.459 0 0 1 3.5-1.767 1.863 1.863 0 0 1 1.932 1.553 11.315 11.315 0 0 1-.6 7.672c-.821 2.064-1.316 3.309 2.117 7.162l.015.018a29.693 29.693 0 0 1 4.124 5.945 6.554 6.554 0 0 1 .486 3.48 19.339 19.339 0 0 0 .378 5.437l.091.468-3.327.814-.1-.515a23.29 23.29 0 0 1-.413-5.324c.042-2.516.066-3.9-3.722-7.948-1.831-1.956-2.985-3.408-3.464-5.046s-.249-3.382.775-5.817a11.732 11.732 0 0 0 .482-3.783c-1.624 1.518-1.919 4.9-2.161 7.671a23.306 23.306 0 0 1-.393 3.1c-.1.4-.39 1.634-1.417 1.635-.879 0-1.975-1-3.664-3.333a23.621 23.621 0 0 1-4.186-9.14 21.825 21.825 0 0 1-.123-7.982 37.754 37.754 0 0 0-18.154 24.786 30.882 30.882 0 0 0-.921 9.287c.01.786.022 1.678.022 2.708l-1 .011-.013-.6c-.157-6.983-.236-10.492 2.383-17.446A39.474 39.474 0 0 1 64.486 9.362 47.738 47.738 0 0 1 68.16 0l.907.423a50.169 50.169 0 0 0-2.753 8.022 40.971 40.971 0 0 1 17.364-3.816 43.042 43.042 0 0 1 14.231 2.415 41.407 41.407 0 0 1 12.7 7.111 39.355 39.355 0 0 1 9.6 11.6 43.012 43.012 0 0 1 4.893 15.868 38.557 38.557 0 0 1-2.188 17.1 46.151 46.151 0 0 1-8.971 15.134 38.158 38.158 0 0 1-10.867 8.583 27.9 27.9 0 0 1-12.891 3.272Zm-13.47-67.338.078.729a12.282 12.282 0 0 1-.444 5.027l-.009.038-.015.036c-.94 2.223-1.165 3.773-.752 5.183.422 1.441 1.551 2.845 3.235 4.644 4.065 4.341 4.037 5.962 3.992 8.648a22.612 22.612 0 0 0 .3 4.6l1.38-.338a20.116 20.116 0 0 1-.307-5.213c.123-2.2.174-3.118-4.381-8.731-1.764-1.98-2.656-3.466-2.895-4.817a5.869 5.869 0 0 1 .6-3.371 10.325 10.325 0 0 0 .552-7.082.878.878 0 0 0-.956-.773 4.553 4.553 0 0 0-2.8 1.48 8.028 8.028 0 0 0-2.2 4.027 26.41 26.41 0 0 0-.759 6.1l-.022 1.318-.858-1a24.137 24.137 0 0 1-5.095-8.956 19.576 19.576 0 0 1-.741-4.215 21.225 21.225 0 0 0 4.427 12.849c1.905 2.634 2.63 2.918 2.854 2.918.113 0 .292-.227.445-.867a23.193 23.193 0 0 0 .369-2.953c.293-3.356.657-7.534 3.351-8.94Zm-.738 41.249a2.166 2.166 0 0 1-1.251-.4l-.076-.054-.052-.078c-.855-1.278-1.657-2.313-2.365-3.226a18 18 0 0 1-4.113-8.086c-.667-2.91-.712-4.38-.158-5.076a1.174 1.174 0 0 1 .959-.44 6.176 6.176 0 0 1 2.442.932 15.326 15.326 0 0 0 2.319 1.059l2.838.564.044.018a2.181 2.181 0 1 1-1.662 4.033l-.08-.033-.064-.058c-.594-.537-1.027-.933-1.375-1.251a17.28 17.28 0 0 0-2.338-1.909 262.22 262.22 0 0 1-1.687-1.222 5.314 5.314 0 0 0-.262 3.164c.861 3.791 4.684 6.909 8.016 8.029l.069.023.059.042a2.163 2.163 0 0 1 .895 1.423 2.138 2.138 0 0 1-.373 1.614 2.167 2.167 0 0 1-1.785.932Zm-.6-1.166a1.171 1.171 0 0 0 .6.166 1.168 1.168 0 0 0 .964-.5l.007-.01a1.145 1.145 0 0 0 .2-.867 1.17 1.17 0 0 0-.431-.731 14.929 14.929 0 0 1-5.05-3.058c.416.59.868 1.173 1.357 1.8.702.904 1.495 1.928 2.348 3.196Zm-.013-10.482a1.181 1.181 0 0 0 .868-2.193l-2.8-.559-.027-.008a15.887 15.887 0 0 1-2.509-1.137 25.303 25.303 0 0 0-.918-.468c.733.536 1.251.908 1.649 1.194a18.114 18.114 0 0 1 2.429 1.983c.34.304.747.68 1.303 1.184Z" fill="rgba(0,0,0,0)"/><path d="M61.96 66.696a4.378 4.378 0 0 1-3.2-1.329 4.381 4.381 0 0 1-1.329-3.2 4.379 4.379 0 0 1 1.329-3.2 4.364 4.364 0 0 1 3.2-1.321h4.517v1.281H61.96a3.156 3.156 0 0 0-2.29.945 3.291 3.291 0 0 0-.9 1.65h7.7v1.3h-7.7a3.311 3.311 0 0 0 .9 1.634 3.156 3.156 0 0 0 2.29.945h4.517v1.3Zm-7.112 0v-4.533a3.048 3.048 0 0 0-.961-2.275 3.19 3.19 0 0 0-4.565 0 3.094 3.094 0 0 0-.945 2.275v4.533h-1.3v-4.533a4.379 4.379 0 0 1 1.329-3.2 4.562 4.562 0 0 1 6.408 0 4.361 4.361 0 0 1 1.313 3.2v4.533Zm-10.347 0v-9.05h1.281v9.05Zm-5.831 0a4.4 4.4 0 0 1-3.2-1.329 4.363 4.363 0 0 1-1.313-3.2v-4.521h1.281v4.517a3.107 3.107 0 0 0 .961 2.29 3.1 3.1 0 0 0 2.274.945h4.533v1.3Zm-7.112 0v-4.533a3.094 3.094 0 0 0-.942-2.274 3.19 3.19 0 0 0-4.565 0 3.048 3.048 0 0 0-.961 2.275v1.3h5.173v1.3h-5.175v1.932h-1.282v-4.533a4.312 4.312 0 0 1 1.33-3.2 4.542 4.542 0 0 1 6.391 0 4.376 4.376 0 0 1 1.329 3.2v4.533Zm-18.1 0v-1.3h6.458a1.257 1.257 0 0 0 .929-.385 1.244 1.244 0 0 0 .369-.913 1.3 1.3 0 0 0-.369-.913 1.243 1.243 0 0 0-.929-.369h-3.879a2.472 2.472 0 0 1-1.827-.769 2.43 2.43 0 0 1-.753-1.826 2.428 2.428 0 0 1 .754-1.822 2.458 2.458 0 0 1 1.826-.753h6.471v1.281h-6.471a1.247 1.247 0 0 0-.913.386 1.244 1.244 0 0 0-.384.913 1.246 1.246 0 0 0 .384.913 1.246 1.246 0 0 0 .913.385h3.879a2.573 2.573 0 0 1 2.595 2.578 2.6 2.6 0 0 1-2.595 2.594Zm-2.595 0v-9.05h1.3v9.05Zm-9.018-2.95a12.493 12.493 0 0 1-1.329-4.819v-1.281h1.3v1.281a11.268 11.268 0 0 0 .943 3.749c.64 1.6 1.394 2.515 2.29 2.723.9-.208 1.65-1.121 2.275-2.723a11 11 0 0 0 .961-3.749v-1.281h1.281v1.281a12.41 12.41 0 0 1-1.314 4.819c-.88 1.97-1.954 2.948-3.2 2.948s-2.325-.975-3.207-2.948Z" fill="#003874"/><path d="M66.977 67.196H61.96a4.869 4.869 0 0 1-3.557-1.476 4.872 4.872 0 0 1-1.476-3.557 4.869 4.869 0 0 1 1.476-3.556 4.862 4.862 0 0 1 3.557-1.461h5.017v2.281H61.96a2.663 2.663 0 0 0-1.936.8 2.989 2.989 0 0 0-.562.8h7.515v2.3h-7.508a3.053 3.053 0 0 0 .555.781 2.663 2.663 0 0 0 1.936.8h5.017Zm-5.017-9.05a3.844 3.844 0 0 0-2.85 1.168 3.9 3.9 0 0 0-1.183 2.85 3.9 3.9 0 0 0 1.183 2.85 3.9 3.9 0 0 0 2.85 1.183h4.017v-.3H61.96a3.667 3.667 0 0 1-2.644-1.086l-.01-.01a3.813 3.813 0 0 1-1.027-1.878l-.127-.6h7.821v-.3h-7.814l.124-.6a3.806 3.806 0 0 1 1.028-1.9l.01-.01a3.667 3.667 0 0 1 2.639-1.086h4.017v-.281Zm-5.33 9.05h-2.282v-5.033a2.553 2.553 0 0 0-.81-1.917l-.009-.009a2.69 2.69 0 0 0-3.849 0 2.6 2.6 0 0 0-.8 1.921v5.038h-2.3v-5.033a4.869 4.869 0 0 1 1.475-3.556 4.862 4.862 0 0 1 3.561-1.461 4.915 4.915 0 0 1 3.551 1.457 4.861 4.861 0 0 1 1.463 3.56Zm-1.282-1h.282v-4.033a3.842 3.842 0 0 0-1.167-2.85 3.893 3.893 0 0 0-2.847-1.167 3.844 3.844 0 0 0-2.85 1.168 3.9 3.9 0 0 0-1.183 2.85v4.032h.3v-4.033a3.6 3.6 0 0 1 1.09-2.626 3.69 3.69 0 0 1 5.274 0 3.552 3.552 0 0 1 1.107 2.628Zm-9.066 1h-2.281v-10.05h2.281Zm-1.281-1h.281v-8.05h-.281Zm-1.3 1H38.67a4.919 4.919 0 0 1-3.554-1.473 4.864 4.864 0 0 1-1.463-3.56v-5.017h2.281v5.017a2.62 2.62 0 0 0 .815 1.936 2.6 2.6 0 0 0 1.921.8h5.033Zm-9.048-9.05v4.017a3.844 3.844 0 0 0 1.163 2.85 3.9 3.9 0 0 0 2.85 1.183h4.033v-.3H38.67a3.6 3.6 0 0 1-2.628-1.092 3.622 3.622 0 0 1-1.108-2.644v-4.014Zm-1.3 9.05h-2.3v-5.033a2.594 2.594 0 0 0-.8-1.921 2.69 2.69 0 0 0-3.849 0l-.009.009a2.553 2.553 0 0 0-.81 1.917v.8h5.173v2.3h-5.17v1.928h-2.282v-5.033a4.813 4.813 0 0 1 1.478-3.558 5.042 5.042 0 0 1 7.1 0 4.866 4.866 0 0 1 1.472 3.558Zm-1.3-1h.3v-4.033a3.9 3.9 0 0 0-1.183-2.85 4.042 4.042 0 0 0-5.684 0 3.8 3.8 0 0 0-1.18 2.846v4.037h.282v-1.938h5.173v-.3h-5.173v-1.8a3.552 3.552 0 0 1 1.107-2.628 3.69 3.69 0 0 1 5.274 0 3.6 3.6 0 0 1 1.089 2.626Zm-12.137 1h-6.958v-2.3h6.958a.758.758 0 0 0 .575-.238.743.743 0 0 0 .222-.56.792.792 0 0 0-.228-.565.743.743 0 0 0-.569-.217h-3.879a2.978 2.978 0 0 1-2.18-.915 2.93 2.93 0 0 1-.9-2.18 2.928 2.928 0 0 1 .9-2.18 2.972 2.972 0 0 1 2.18-.9h6.971v2.286h-6.971a.751.751 0 0 0-.56.239.776.776 0 0 0 0 1.118.75.75 0 0 0 .56.238h3.879a3.073 3.073 0 0 1 3.095 3.078 3.1 3.1 0 0 1-3.095 3.096Zm-5.956-1h5.956a2.013 2.013 0 0 0 1.488-.622 1.987 1.987 0 0 0 .607-1.473 2.008 2.008 0 0 0-.606-1.471 1.981 1.981 0 0 0-1.489-.607h-3.879a1.737 1.737 0 0 1-1.267-.531 1.736 1.736 0 0 1-.53-1.266 1.733 1.733 0 0 1 .531-1.267 1.737 1.737 0 0 1 1.266-.532h5.971v-.281h-5.971a1.968 1.968 0 0 0-1.468.6l-.011.011a1.937 1.937 0 0 0-.6 1.466 1.939 1.939 0 0 0 .6 1.467l.011.011a1.974 1.974 0 0 0 1.468.617h3.879a1.748 1.748 0 0 1 1.282.515l.011.012a1.784 1.784 0 0 1 .5 1.254 1.786 1.786 0 0 1-1.8 1.8h-5.951Zm-1.3 1h-2.3v-10.05h2.3Zm-1.3-1h.3v-8.05h-.3Zm-6.315 1c-1.466 0-2.7-1.091-3.66-3.244a12.976 12.976 0 0 1-1.369-5.025v-1.781h2.3v1.781a10.907 10.907 0 0 0 .911 3.567c.542 1.362 1.155 2.165 1.822 2.386.667-.222 1.277-1.023 1.809-2.386a10.623 10.623 0 0 0 .927-3.567v-1.781h2.281v1.781a12.884 12.884 0 0 1-1.358 5.027c-.961 2.151-2.192 3.242-3.659 3.242Zm-4.029-9.05v.781a12.054 12.054 0 0 0 1.285 4.619c.788 1.758 1.715 2.65 2.748 2.65s1.96-.892 2.747-2.65a11.955 11.955 0 0 0 1.27-4.619v-.781h-.282v.781a11.337 11.337 0 0 1-1 3.934c-.693 1.785-1.552 2.777-2.622 3.025l-.113.026-.113-.026c-1.063-.246-1.927-1.24-2.642-3.024a11.63 11.63 0 0 1-.978-3.935v-.781Z" fill="rgba(0,0,0,0)"/><path d="M19.609 76.659a4.146 4.146 0 0 1-.464-.1v-.525h.016c.1.032.224.064.416.112a2.132 2.132 0 0 0 .545.08 1.544 1.544 0 0 0 .448-.064.882.882 0 0 0 .272-.176.826.826 0 0 0 .145-.256 2.5 2.5 0 0 0 .032-.337v-.288a1.754 1.754 0 0 1-.449.288 1.7 1.7 0 0 1-.545.08 1.052 1.052 0 0 1-.881-.4 1.672 1.672 0 0 1-.32-1.121 1.767 1.767 0 0 1 .112-.688 1.435 1.435 0 0 1 .3-.5 1.064 1.064 0 0 1 .432-.3 1.233 1.233 0 0 1 .512-.112 1.746 1.746 0 0 1 .449.048 1.928 1.928 0 0 1 .385.16l.031-.129h.5v2.738a1.65 1.65 0 0 1-.351 1.156 1.506 1.506 0 0 1-1.105.368 4.469 4.469 0 0 1-.48-.034Zm0-3.556a1.207 1.207 0 0 0-.256.833 1.317 1.317 0 0 0 .193.785.641.641 0 0 0 .609.272 1.461 1.461 0 0 0 .447-.08 1.745 1.745 0 0 0 .418-.24v-1.682a1.212 1.212 0 0 0-.385-.128 1.332 1.332 0 0 0-.353-.048.829.829 0 0 0-.673.288Zm44.129 3.556V72.43h.512v.32a2.417 2.417 0 0 1 .48-.288 1.226 1.226 0 0 1 .545-.112 1.065 1.065 0 0 1 .881.416 1.949 1.949 0 0 1 .3 1.17 1.88 1.88 0 0 1-.112.688 1.418 1.418 0 0 1-.3.529 1.1 1.1 0 0 1-.432.32 1.157 1.157 0 0 1-.529.112 1.746 1.746 0 0 1-.433-.049 2.488 2.488 0 0 1-.4-.16v1.283Zm.962-3.716a1.793 1.793 0 0 0-.448.256v1.746a1.759 1.759 0 0 0 .384.128 1.286 1.286 0 0 0 .364.052.793.793 0 0 0 .672-.3 1.323 1.323 0 0 0 .241-.865 1.605 1.605 0 0 0-.177-.832.662.662 0 0 0-.593-.273 1.083 1.083 0 0 0-.443.088Zm-5.159 2.371a1.215 1.215 0 0 1-.272-.881v-2h.512v1.759a2.688 2.688 0 0 0 .032.4.764.764 0 0 0 .1.288.405.405 0 0 0 .192.176.877.877 0 0 0 .337.064 1.24 1.24 0 0 0 .448-.112 1.879 1.879 0 0 0 .449-.272V72.43h.529v3.095h-.529v-.34a3.708 3.708 0 0 1-.5.32 1.578 1.578 0 0 1-.545.1.98.98 0 0 1-.753-.291Zm-4.388-.145a1.726 1.726 0 0 1-.386-1.185 1.744 1.744 0 0 1 .386-1.2 1.364 1.364 0 0 1 1.057-.432 1.3 1.3 0 0 1 1.025.432 1.756 1.756 0 0 1 .4 1.2 1.74 1.74 0 0 1-.4 1.185 1.3 1.3 0 0 1-1.025.433 1.364 1.364 0 0 1-1.057-.433Zm.4-2.083a1.4 1.4 0 0 0-.24.9 1.331 1.331 0 0 0 .24.865.747.747 0 0 0 .657.3.784.784 0 0 0 .64-.288 1.4 1.4 0 0 0 .24-.88 1.4 1.4 0 0 0-.24-.9.783.783 0 0 0-.64-.288.775.775 0 0 0-.657.292Zm-7.833 2.388a1.735 1.735 0 0 1-.689-.4 1.63 1.63 0 0 1-.432-.672 2.376 2.376 0 0 1-.161-.945 2.088 2.088 0 0 1 .578-1.555 2.143 2.143 0 0 1 1.584-.577 3.675 3.675 0 0 1 .721.08 4.732 4.732 0 0 1 .785.288v.657h-.048a2.166 2.166 0 0 0-.24-.177c-.112-.063-.224-.127-.318-.175a5.334 5.334 0 0 0-.433-.145 3.047 3.047 0 0 0-.561-.047 1.369 1.369 0 0 0-1.089.448 1.661 1.661 0 0 0-.4 1.185 1.685 1.685 0 0 0 .416 1.25 1.448 1.448 0 0 0 1.137.448 1.99 1.99 0 0 0 .529-.064 2.678 2.678 0 0 0 .464-.128v-1.009h-1.106v-.481h1.65v1.763a3.33 3.33 0 0 1-.737.272 2.885 2.885 0 0 1-1.65-.016Zm-11.181-.3a1.661 1.661 0 0 1-.4-1.185 1.678 1.678 0 0 1 .4-1.2 1.452 1.452 0 0 1 2.067 0 1.678 1.678 0 0 1 .4 1.2 1.661 1.661 0 0 1-.4 1.185 1.45 1.45 0 0 1-2.067 0Zm.385-2.083a1.4 1.4 0 0 0-.241.9 1.326 1.326 0 0 0 .241.865.766.766 0 0 0 .656.3.785.785 0 0 0 .641-.288 1.407 1.407 0 0 0 .24-.88 1.4 1.4 0 0 0-.24-.9.764.764 0 0 0-.641-.288.774.774 0 0 0-.656.287ZM26.673 75.33a.918.918 0 0 1-.288-.705 1.029 1.029 0 0 1 .144-.577 1.023 1.023 0 0 1 .432-.337 2.609 2.609 0 0 1 .673-.176c.272-.016.545-.048.849-.063v-.08a.547.547 0 0 0-.064-.288.406.406 0 0 0-.176-.192.942.942 0 0 0-.257-.08 2.236 2.236 0 0 0-.336-.016 2.381 2.381 0 0 0-.449.048 3.641 3.641 0 0 0-.512.16h-.032v-.529a3.019 3.019 0 0 1 .433-.1 3.486 3.486 0 0 1 .577-.048 2.018 2.018 0 0 1 .56.063 1.288 1.288 0 0 1 .433.177.783.783 0 0 1 .256.336 1.145 1.145 0 0 1 .1.5v2.102h-.529v-.32a.769.769 0 0 0-.177.129 1.828 1.828 0 0 1-.24.128 1.239 1.239 0 0 1-.288.112 1.5 1.5 0 0 1-.4.032.953.953 0 0 1-.709-.276Zm1.249-1.394a2.59 2.59 0 0 0-.5.08.821.821 0 0 0-.369.208.45.45 0 0 0-.129.368.533.533 0 0 0 .145.4.735.735 0 0 0 .5.128 1.231 1.231 0 0 0 .5-.1 2.652 2.652 0 0 0 .417-.255v-.861c-.164 0-.339.016-.564.032Zm3.2 1.394a1.064 1.064 0 0 1-.256-.818v-1.649h-.353v-.433h.353v-.881h.534v.881h1.073v.433H31.4v1.794a1.211 1.211 0 0 0 .08.256.47.47 0 0 0 .176.177.8.8 0 0 0 .32.047.911.911 0 0 0 .272-.047 1.4 1.4 0 0 0 .192-.065h.031v.481a2.813 2.813 0 0 0-.32.063 2.145 2.145 0 0 1-.32.017.91.91 0 0 1-.705-.256Zm20.939.195V72.43h.512v.465a2.025 2.025 0 0 1 .545-.352 1.07 1.07 0 0 1 .5-.112.662.662 0 0 1 .193.016.863.863 0 0 1 .176.016v.545h-.016a1.273 1.273 0 0 0-.24-.048c-.064 0-.145-.016-.257-.016a1.164 1.164 0 0 0-.464.112 2.138 2.138 0 0 0-.436.269v2.2Zm-9.323 0V73.76a3.252 3.252 0 0 0-.031-.4.615.615 0 0 0-.1-.288.516.516 0 0 0-.193-.177 1.084 1.084 0 0 0-.336-.048 1.144 1.144 0 0 0-.449.1 2.616 2.616 0 0 0-.448.272v2.306h-.529V72.43h.529v.353a2.188 2.188 0 0 1 .5-.32 1.273 1.273 0 0 1 .545-.112.947.947 0 0 1 .769.3 1.238 1.238 0 0 1 .256.865v2Zm-8.793 0V72.43h.529v3.095Zm-10.524 0V72.43h.529v.465a2.013 2.013 0 0 1 .545-.352 1.051 1.051 0 0 1 .48-.112.552.552 0 0 1 .192.016.912.912 0 0 1 .192.016v.545h-.031a1.125 1.125 0 0 0-.225-.048c-.08 0-.16-.016-.256-.016a1.161 1.161 0 0 0-.464.112 1.513 1.513 0 0 0-.433.269v2.2Zm-6.921 0V72.43h.529v3.095Zm-2.435 0V73.76a3.071 3.071 0 0 0-.016-.384.625.625 0 0 0-.08-.289.409.409 0 0 0-.176-.192.948.948 0 0 0-.337-.048 1.083 1.083 0 0 0-.448.1 3.384 3.384 0 0 0-.433.289c0 .047.016.1.016.144v2.145h-.512V73.76a3.1 3.1 0 0 0-.032-.384.645.645 0 0 0-.063-.289.558.558 0 0 0-.193-.192.949.949 0 0 0-.336-.048 1.066 1.066 0 0 0-.433.1 2.393 2.393 0 0 0-.417.272v2.306h-.526V72.43h.528v.353a2.114 2.114 0 0 1 .481-.32 1.135 1.135 0 0 1 .512-.112 1.194 1.194 0 0 1 .545.128.786.786 0 0 1 .32.368 2.585 2.585 0 0 1 .577-.384 1.3 1.3 0 0 1 .561-.112.892.892 0 0 1 .753.3 1.393 1.393 0 0 1 .24.865v2Zm-6.2 0V73.76a3.071 3.071 0 0 0-.016-.384.625.625 0 0 0-.08-.289.409.409 0 0 0-.169-.192.989.989 0 0 0-.353-.048 1.063 1.063 0 0 0-.432.1 3.384 3.384 0 0 0-.433.289.442.442 0 0 0 .016.144v2.145h-.532V73.76a3.071 3.071 0 0 0-.016-.384.953.953 0 0 0-.064-.289.549.549 0 0 0-.192-.192.949.949 0 0 0-.336-.048 1.066 1.066 0 0 0-.433.1 3.232 3.232 0 0 0-.432.272v2.306H3.88V72.43h.512v.353a2.171 2.171 0 0 1 .5-.32 1.09 1.09 0 0 1 .508-.112 1.082 1.082 0 0 1 .529.128.928.928 0 0 1 .336.368 2.585 2.585 0 0 1 .577-.384 1.3 1.3 0 0 1 .558-.112.914.914 0 0 1 .753.3 1.392 1.392 0 0 1 .239.865v2Zm-7.365 0v-.42h.545v-3.28H.5v-.42h1.634v.42h-.545v3.28h.545v.42Zm33.412-3.607v-.545h.593v.545Zm-17.442 0v-.545h.593v.545Z" fill="#d1ab66"/><path d="M20.089 77.191a4.941 4.941 0 0 1-.533-.034 3.037 3.037 0 0 1-.408-.079l-.112-.027-.392-.087v-1.43h.241a1.539 1.539 0 0 1-.128-.145 2.129 2.129 0 0 1-.433-1.438 2.252 2.252 0 0 1 .144-.864 1.912 1.912 0 0 1 .4-.653 1.569 1.569 0 0 1 .616-.435 1.722 1.722 0 0 1 .7-.149 2.289 2.289 0 0 1 .577.065l.053.015h1.231v3.239a2.117 2.117 0 0 1-.488 1.5l-.011.012a1.982 1.982 0 0 1-1.457.51Zm-.113-2.723a.418.418 0 0 0 .178.026.953.953 0 0 0 .276-.05.9.9 0 0 0 .089-.041V73.35l-.019-.006a.83.83 0 0 0-.215-.029.332.332 0 0 0-.29.109l-.015.017a.767.767 0 0 0-.125.5.854.854 0 0 0 .1.491Zm44.774 2.691h-1.512V71.93h1.48a1.855 1.855 0 0 1 .558-.08 1.57 1.57 0 0 1 1.278.612l.009.012a2.424 2.424 0 0 1 .4 1.462 2.361 2.361 0 0 1-.139.852 1.907 1.907 0 0 1-.394.686 1.579 1.579 0 0 1-.6.451 1.644 1.644 0 0 1-.744.161 2.475 2.475 0 0 1-.333-.021Zm0-2.573.021.006a.792.792 0 0 0 .229.033.3.3 0 0 0 .276-.109l.013-.016a.906.906 0 0 0 .124-.544 1.23 1.23 0 0 0-.1-.559c-.023-.031-.082-.047-.174-.047a.583.583 0 0 0-.246.054l-.016.007a1.462 1.462 0 0 0-.135.062Zm-4.456 1.516a1.476 1.476 0 0 1-1.114-.443 1.691 1.691 0 0 1-.411-1.227V71.93h1.512v2.262a2.193 2.193 0 0 0 .027.33.346.346 0 0 0 .022.086.4.4 0 0 0 .108.014.914.914 0 0 0 .262-.077.947.947 0 0 0 .134-.067V71.93h1.529v4.095h-1.5a2.061 2.061 0 0 1-.569.077Zm-4.084 0a1.853 1.853 0 0 1-1.421-.59l-.01-.011a2.205 2.205 0 0 1-.512-1.518 3.061 3.061 0 0 1 .036-.478h-.432l-.083-.033-.048-.007-.066-.009-.089-.007c-.039 0-.076-.007-.115-.007a.664.664 0 0 0-.261.069 1.135 1.135 0 0 0-.135.073v2.441h-1.513V71.93h1.512v.089a1.605 1.605 0 0 1 .541-.089 1.346 1.346 0 0 1 .255.017 1.33 1.33 0 0 1 .212.025l.4.08v.85a1.853 1.853 0 0 1 .3-.452l.01-.011a1.852 1.852 0 0 1 1.419-.588 1.792 1.792 0 0 1 1.4.6 2.266 2.266 0 0 1 .528 1.534 2.241 2.241 0 0 1-.527 1.516 1.793 1.793 0 0 1-1.401.601Zm0-2.8c-.191 0-.239.064-.258.088l-.015.018a.921.921 0 0 0-.125.579.911.911 0 0 0 .125.546l.025.033c.02.029.063.09.247.09a.288.288 0 0 0 .25-.1.973.973 0 0 0 .131-.568.918.918 0 0 0-.124-.578.288.288 0 0 0-.256-.111Zm-7.61 2.8a3.022 3.022 0 0 1-1.039-.154 2.247 2.247 0 0 1-.869-.507 2.126 2.126 0 0 1-.559-.857 2.852 2.852 0 0 1-.2-1.129 2.587 2.587 0 0 1 .73-1.907 2.631 2.631 0 0 1 1.937-.723 4.157 4.157 0 0 1 .82.09l.03.01a5.239 5.239 0 0 1 .869.319l.288.135v1.472h-.76l-.141-.145-.074-.052-.083-.057c-.094-.054-.18-.1-.252-.139a5.902 5.902 0 0 0-.348-.116 2.569 2.569 0 0 0-.445-.035.881.881 0 0 0-.717.282l-.009.01a1.175 1.175 0 0 0-.264.842 1.225 1.225 0 0 0 .27.9l.019.02a.965.965 0 0 0 .764.282 1.485 1.485 0 0 0 .4-.047l.044-.01.052-.01v-.14h-1.106v-1.481h2.65v2.57l-.276.138a3.839 3.839 0 0 1-.831.309 3.039 3.039 0 0 1-.9.13Zm-11.02 0a1.808 1.808 0 0 1-1.41-.6 2.147 2.147 0 0 1-.53-1.517 2.172 2.172 0 0 1 .531-1.539 1.951 1.951 0 0 1 2.8 0 2.171 2.171 0 0 1 .532 1.54 2.147 2.147 0 0 1-.532 1.523 1.793 1.793 0 0 1-1.39.593Zm0-2.8c-.191 0-.24.066-.256.087l-.016.02a.917.917 0 0 0-.125.578.907.907 0 0 0 .125.545l.012.015a.269.269 0 0 0 .26.109.291.291 0 0 0 .251-.1.978.978 0 0 0 .131-.568.921.921 0 0 0-.125-.579l-.015-.018c-.016-.026-.066-.092-.241-.092Zm-10.2 2.8a1.441 1.441 0 0 1-1.05-.411 1.414 1.414 0 0 1-.445-1.066 1.516 1.516 0 0 1 .227-.854l.021-.03a1.692 1.692 0 0 1 .2-.218h-.178v-1.39l.345-.113a3.446 3.446 0 0 1 .509-.115 4 4 0 0 1 .657-.055 2.493 2.493 0 0 1 .68.078 1.793 1.793 0 0 1 .579.239l.023.015a1.266 1.266 0 0 1 .42.531 1.666 1.666 0 0 1 .144.71v2.602h-1.5l-.091.028a1.9 1.9 0 0 1-.543.049Zm.052-1.489a1.035 1.035 0 0 0 .14.008.754.754 0 0 0 .283-.049c.046-.023.088-.046.13-.07v-.069h-.023a2.065 2.065 0 0 0-.395.062.368.368 0 0 0-.136.064v.032c0 .013-.002.016-.002.023Zm4.4 1.473a1.393 1.393 0 0 1-1.058-.4 1.532 1.532 0 0 1-.4-1.172v-1.151h-.353V71.93h.353v-.881H31.9v.881h1.073v1.433H31.9v1.242c0 .01.006.02.009.031h.067a.425.425 0 0 0 .118-.023l.025-.008.026-.005a.533.533 0 0 0 .066-.023l.068-.025.079-.027h.615v1.4l-.473.082a1.928 1.928 0 0 0-.215.043l-.031.009h-.032a2.576 2.576 0 0 1-.392.027Zm11.919-.061h-1.513V73.76a2.725 2.725 0 0 0-.026-.326v-.009a.485.485 0 0 0-.012-.07.737.737 0 0 0-.116-.008.64.64 0 0 0-.238.05 3.886 3.886 0 0 0-.16.085v2.543h-1.53V71.93h1.52a1.837 1.837 0 0 1 .55-.08 1.432 1.432 0 0 1 1.144.475 1.706 1.706 0 0 1 .381 1.2Zm-8.777 0h-1.529v-3.6h-.033v-1.552h1.593v1.545h-.031Zm-10.524 0h-1.529V71.93h1.529v.089a1.566 1.566 0 0 1 .525-.089 1.345 1.345 0 0 1 .262.017 1.31 1.31 0 0 1 .221.025l.4.081v1.454h-.628l-.089-.036-.041-.006-.05-.008c-.042 0-.079-.005-.114-.009s-.066-.006-.092-.006a.657.657 0 0 0-.26.069l-.017.007a.864.864 0 0 0-.119.059Zm-6.92 0H16v-3.6h-.03v-1.552h1.593v1.545h-.033Zm-2.43 0h-1.533V73.76a2.683 2.683 0 0 0-.012-.322c0-.039-.009-.069-.013-.089h-.084a.575.575 0 0 0-.227.045q-.068.039-.138.085v2.546h-1.512V73.76a2.7 2.7 0 0 0-.028-.322v-.062a.246.246 0 0 0 0-.026h-.091a.553.553 0 0 0-.212.046 3.986 3.986 0 0 0-.138.079v2.55H9.579V71.93h1.493a1.712 1.712 0 0 1 .528-.079 1.684 1.684 0 0 1 .767.18l.033.014.026.017a1.653 1.653 0 0 1 .134.1 2.391 2.391 0 0 1 .281-.152 1.787 1.787 0 0 1 .759-.159 1.364 1.364 0 0 1 1.149.5 1.88 1.88 0 0 1 .344 1.17Zm-6.2 0H7.368V73.76a2.683 2.683 0 0 0-.012-.322c0-.039-.009-.068-.013-.088h-.1a.551.551 0 0 0-.211.045q-.068.039-.138.085v2.545H5.366V73.76a2.68 2.68 0 0 0-.012-.322c0-.038-.009-.067-.012-.089h-.084a.553.553 0 0 0-.212.046l-.153.087v2.543H3.38V71.93h1.49a1.668 1.668 0 0 1 .53-.079 1.577 1.577 0 0 1 .77.19l.036.022a1.7 1.7 0 0 1 .14.1 2.4 2.4 0 0 1 .29-.158 1.787 1.787 0 0 1 .764-.154 1.413 1.413 0 0 1 1.134.48l.016.02a1.88 1.88 0 0 1 .35 1.168Zm-6.262 0H0v-1.42h.545v-2.28H0v-1.42h2.634v1.42h-.545v2.28h.545Z" fill="rgba(0,0,0,0)"/></svg>